<?xml version="1.0" encoding="UTF-8"?><svg id="_レイヤー_1" xmlns="http://www.w3.org/2000/svg" viewBox="0 0 606.57 135.15"><defs><style>.cls-1{fill:#fca47e;stroke:#fca47e;}.cls-1,.cls-2{stroke-miterlimit:10;stroke-width:6.88px;}.cls-2{fill:#95bccc;stroke:#95bccc;}</style></defs><path class="cls-2" d="M104.32,23.63h-53.37c-19.98,0-27.88,7.45-27.88,30.11v11.48h74.39c3.13,0,4.77,1.94,4.77,5.22v2.98c0,3.13-1.64,5.22-4.77,5.22H23.07v48.15c0,3.28-1.94,4.92-5.07,4.92h-2.98c-3.13,0-5.22-1.64-5.22-4.92V53.74c0-29.67,10.58-43.53,41.15-43.53h53.37c3.43,0,5.07,2.09,5.07,5.22v2.98c0,3.13-1.64,5.22-5.07,5.22Z"/><path class="cls-2" d="M175.13,131.56h-16.7c-24.75,0-35.93-10.58-35.93-33.54v-53.37c0-3.28,1.94-4.92,5.07-4.92h3.13c2.98,0,5.22,1.64,5.22,4.92v52.18c0,17,7.45,21.91,23.85,21.91h14.01c16.4,0,23.85-5.07,23.85-21.91v-52.18c0-3.28,1.94-4.92,5.07-4.92h3.13c3.13,0,5.37,1.64,5.37,4.92v53.37c0,22.21-11.33,33.54-36.08,33.54Z"/><path class="cls-2" d="M303.33,52.7h-40.25v49.94c0,12.08,6.26,16.1,17.59,16.1h17.59c3.28,0,5.22,2.24,5.22,5.37v2.09c0,3.13-1.79,5.37-5.22,5.37h-19.83c-18.93,0-28.47-8.94-28.47-26.54v-52.33h-20.72c-3.58,0-5.07-2.09-5.07-5.37v-2.24c0-3.28,1.79-5.37,5.07-5.37h20.72v-16.85c0-3.28,2.24-5.07,5.37-5.07h2.38c3.13,0,5.37,1.79,5.37,5.07v16.85h40.25c3.43,0,5.07,2.09,5.07,5.37v2.24c0,3.28-1.49,5.37-5.07,5.37Z"/><path class="cls-2" d="M376.38,131.56h-16.7c-24.75,0-35.93-10.58-35.93-33.54v-53.37c0-3.28,1.94-4.92,5.07-4.92h3.13c2.98,0,5.22,1.64,5.22,4.92v52.18c0,17,7.45,21.91,23.85,21.91h14.01c16.4,0,23.85-5.07,23.85-21.91v-52.18c0-3.28,1.94-4.92,5.07-4.92h3.13c3.13,0,5.37,1.64,5.37,4.92v53.37c0,22.21-11.33,33.54-36.08,33.54Z"/><path class="cls-2" d="M494.9,52.7h-25.64c-18.78,0-27.43,9.39-27.43,26.98v46.96c0,3.28-2.24,5.07-5.37,5.07h-2.68c-3.13,0-5.22-1.79-5.22-5.07v-46.66c0-27.28,15.36-40.25,38.91-40.25h27.43c3.43,0,5.07,1.94,5.07,5.22v2.38c0,3.28-1.64,5.37-5.07,5.37Z"/><path class="cls-2" d="M575.55,93.99h-52.03v8.94c0,8.65,5.52,16.7,19.53,16.7h53.82c3.13,0,4.77,2.24,4.77,5.22v1.64c0,3.13-1.49,5.22-4.77,5.22h-56.65c-18.78,0-29.96-11.78-29.96-28.92v-36.08c0-14.01,8.5-26.98,31.16-26.98h33.69c17.74,0,28.03,12.37,28.03,25.04v4.32c0,13.71-8.94,24.9-27.58,24.9ZM589.71,65.52c0-8.05-6.86-13.57-15.8-13.57h-30.86c-15.5,0-19.53,8.8-19.53,15.5v16.1h50.24c11.18,0,15.95-5.22,15.95-14.16v-3.88Z"/><path class="cls-1" d="M97.96,16.86h-53.37c-19.98,0-27.88,7.45-27.88,30.11v11.48h74.39c3.13,0,4.77,1.94,4.77,5.22v2.98c0,3.13-1.64,5.22-4.77,5.22H16.71v48.15c0,3.28-1.94,4.92-5.07,4.92h-2.98c-3.13,0-5.22-1.64-5.22-4.92V46.97C3.44,17.31,14.02,3.44,44.59,3.44h53.37c3.43,0,5.07,2.09,5.07,5.22v2.98c0,3.13-1.64,5.22-5.07,5.22Z"/><path class="cls-1" d="M168.77,124.79h-16.7c-24.75,0-35.93-10.58-35.93-33.54v-53.37c0-3.28,1.94-4.92,5.07-4.92h3.13c2.98,0,5.22,1.64,5.22,4.92v52.18c0,17,7.45,21.91,23.85,21.91h14.01c16.4,0,23.85-5.07,23.85-21.91v-52.18c0-3.28,1.94-4.92,5.07-4.92h3.13c3.13,0,5.37,1.64,5.37,4.92v53.37c0,22.21-11.33,33.54-36.08,33.54Z"/><path class="cls-1" d="M296.97,45.93h-40.25v49.94c0,12.08,6.26,16.1,17.59,16.1h17.59c3.28,0,5.22,2.24,5.22,5.37v2.09c0,3.13-1.79,5.37-5.22,5.37h-19.83c-18.93,0-28.47-8.94-28.47-26.54v-52.33h-20.72c-3.58,0-5.07-2.09-5.07-5.37v-2.24c0-3.28,1.79-5.37,5.07-5.37h20.72v-16.85c0-3.28,2.24-5.07,5.37-5.07h2.38c3.13,0,5.37,1.79,5.37,5.07v16.85h40.25c3.43,0,5.07,2.09,5.07,5.37v2.24c0,3.28-1.49,5.37-5.07,5.37Z"/><path class="cls-1" d="M370.02,124.79h-16.7c-24.75,0-35.93-10.58-35.93-33.54v-53.37c0-3.28,1.94-4.92,5.07-4.92h3.13c2.98,0,5.22,1.64,5.22,4.92v52.18c0,17,7.45,21.91,23.85,21.91h14.01c16.4,0,23.85-5.07,23.85-21.91v-52.18c0-3.28,1.94-4.92,5.07-4.92h3.13c3.13,0,5.37,1.64,5.37,4.92v53.37c0,22.21-11.33,33.54-36.08,33.54Z"/><path class="cls-1" d="M488.54,45.93h-25.64c-18.78,0-27.43,9.39-27.43,26.98v46.96c0,3.28-2.24,5.07-5.37,5.07h-2.68c-3.13,0-5.22-1.79-5.22-5.07v-46.66c0-27.28,15.36-40.25,38.91-40.25h27.43c3.43,0,5.07,1.94,5.07,5.22v2.38c0,3.28-1.64,5.37-5.07,5.37Z"/><path class="cls-1" d="M569.19,87.22h-52.03v8.94c0,8.65,5.52,16.7,19.53,16.7h53.82c3.13,0,4.77,2.24,4.77,5.22v1.64c0,3.13-1.49,5.22-4.77,5.22h-56.65c-18.78,0-29.96-11.78-29.96-28.92v-36.08c0-14.01,8.5-26.98,31.16-26.98h33.69c17.74,0,28.03,12.37,28.03,25.04v4.32c0,13.71-8.94,24.9-27.58,24.9ZM583.35,58.75c0-8.05-6.86-13.57-15.8-13.57h-30.86c-15.5,0-19.53,8.8-19.53,15.5v16.1h50.24c11.18,0,15.95-5.22,15.95-14.16v-3.88Z"/></svg>